<mxfile host="app.diagrams.net" agent="Mozilla/5.0 (Windows NT 10.0; Win64; x64) AppleWebKit/537.36 (KHTML, like Gecko) Chrome/134.0.0.0 Safari/537.36" version="26.2.14">
  <diagram name="Page-1" id="f4RgozTBkHIGcaxUFx-9">
    <mxGraphModel dx="1015" dy="433" grid="0" gridSize="10" guides="1" tooltips="1" connect="1" arrows="1" fold="1" page="0" pageScale="1" pageWidth="850" pageHeight="1100" math="0" shadow="0">
      <root>
        <mxCell id="0" />
        <mxCell id="1" parent="0" />
        <mxCell id="uxeTQ0TG8dGUc4mtPnmj-7" style="edgeStyle=none;curved=1;rounded=0;orthogonalLoop=1;jettySize=auto;html=1;exitX=1;exitY=0.75;exitDx=0;exitDy=0;entryX=0;entryY=0.75;entryDx=0;entryDy=0;fontSize=12;startSize=8;endSize=8;" edge="1" parent="1" source="uxeTQ0TG8dGUc4mtPnmj-1" target="uxeTQ0TG8dGUc4mtPnmj-2">
          <mxGeometry relative="1" as="geometry" />
        </mxCell>
        <mxCell id="uxeTQ0TG8dGUc4mtPnmj-1" value="Web App" style="rounded=0;whiteSpace=wrap;html=1;" vertex="1" parent="1">
          <mxGeometry x="-94" y="158" width="120" height="60" as="geometry" />
        </mxCell>
        <mxCell id="uxeTQ0TG8dGUc4mtPnmj-5" style="edgeStyle=none;curved=1;rounded=0;orthogonalLoop=1;jettySize=auto;html=1;exitX=0.75;exitY=0;exitDx=0;exitDy=0;entryX=0.75;entryY=1;entryDx=0;entryDy=0;fontSize=12;startSize=8;endSize=8;" edge="1" parent="1" source="uxeTQ0TG8dGUc4mtPnmj-2" target="uxeTQ0TG8dGUc4mtPnmj-3">
          <mxGeometry relative="1" as="geometry" />
        </mxCell>
        <mxCell id="uxeTQ0TG8dGUc4mtPnmj-6" style="edgeStyle=none;curved=1;rounded=0;orthogonalLoop=1;jettySize=auto;html=1;exitX=0;exitY=0.25;exitDx=0;exitDy=0;entryX=1;entryY=0.25;entryDx=0;entryDy=0;fontSize=12;startSize=8;endSize=8;" edge="1" parent="1" source="uxeTQ0TG8dGUc4mtPnmj-2" target="uxeTQ0TG8dGUc4mtPnmj-1">
          <mxGeometry relative="1" as="geometry" />
        </mxCell>
        <mxCell id="uxeTQ0TG8dGUc4mtPnmj-9" style="edgeStyle=none;curved=1;rounded=0;orthogonalLoop=1;jettySize=auto;html=1;exitX=1;exitY=0.25;exitDx=0;exitDy=0;entryX=0;entryY=0.25;entryDx=0;entryDy=0;fontSize=12;startSize=8;endSize=8;" edge="1" parent="1" source="uxeTQ0TG8dGUc4mtPnmj-2" target="uxeTQ0TG8dGUc4mtPnmj-8">
          <mxGeometry relative="1" as="geometry" />
        </mxCell>
        <mxCell id="uxeTQ0TG8dGUc4mtPnmj-2" value="WebServer" style="rounded=0;whiteSpace=wrap;html=1;" vertex="1" parent="1">
          <mxGeometry x="123" y="158" width="120" height="60" as="geometry" />
        </mxCell>
        <mxCell id="uxeTQ0TG8dGUc4mtPnmj-4" style="edgeStyle=none;curved=1;rounded=0;orthogonalLoop=1;jettySize=auto;html=1;exitX=0.25;exitY=1;exitDx=0;exitDy=0;entryX=0.25;entryY=0;entryDx=0;entryDy=0;fontSize=12;startSize=8;endSize=8;" edge="1" parent="1" source="uxeTQ0TG8dGUc4mtPnmj-3" target="uxeTQ0TG8dGUc4mtPnmj-2">
          <mxGeometry relative="1" as="geometry" />
        </mxCell>
        <mxCell id="uxeTQ0TG8dGUc4mtPnmj-3" value="MemCache" style="rounded=0;whiteSpace=wrap;html=1;" vertex="1" parent="1">
          <mxGeometry x="123" y="24" width="120" height="60" as="geometry" />
        </mxCell>
        <mxCell id="uxeTQ0TG8dGUc4mtPnmj-10" style="edgeStyle=none;curved=1;rounded=0;orthogonalLoop=1;jettySize=auto;html=1;exitX=0;exitY=0.75;exitDx=0;exitDy=0;entryX=1;entryY=0.75;entryDx=0;entryDy=0;fontSize=12;startSize=8;endSize=8;" edge="1" parent="1" source="uxeTQ0TG8dGUc4mtPnmj-8" target="uxeTQ0TG8dGUc4mtPnmj-2">
          <mxGeometry relative="1" as="geometry" />
        </mxCell>
        <mxCell id="uxeTQ0TG8dGUc4mtPnmj-8" value="Repository" style="rounded=0;whiteSpace=wrap;html=1;" vertex="1" parent="1">
          <mxGeometry x="334" y="158" width="120" height="60" as="geometry" />
        </mxCell>
      </root>
    </mxGraphModel>
  </diagram>
</mxfile>
